<svg xmlns="http://www.w3.org/2000/svg" viewBox="0 0 1440 1080" role="img" aria-labelledby="t d">
<title id="t">SQLD Notion study automation preview</title><desc id="d">Study dashboard with theory, practice, review schedule and wrong answer notes.</desc>
<rect width="1440" height="1080" fill="#f5f4f0"/>
<text x="86" y="112" font-family="Arial,sans-serif" font-size="24" letter-spacing="7" fill="#777">DROID STUDIO / AUTOMATION</text>
<text x="86" y="892" font-family="Arial,sans-serif" font-size="72" font-weight="700" fill="#181a1d">SQLD Study System</text>
<text x="86" y="950" font-family="Arial,sans-serif" font-size="28" fill="#686b72">Notion DB 자동 생성 · 복습 스케줄 자동화</text>
<g transform="translate(480 140)">
<rect width="850" height="620" rx="30" fill="#fff" stroke="#dedbd4"/>
<rect width="850" height="72" rx="30" fill="#fff"/><circle cx="38" cy="36" r="7" fill="#ff695f"/><circle cx="62" cy="36" r="7" fill="#ffbd45"/><circle cx="86" cy="36" r="7" fill="#60c452"/><text x="126" y="44" font-family="Arial,sans-serif" font-size="17" fill="#52565d">SQLD 학습 대시보드</text>
<rect x="34" y="104" width="170" height="482" rx="18" fill="#f0efe9"/><text x="58" y="150" font-family="Arial,sans-serif" font-size="14" fill="#767a80">DATABASES</text>
<g font-family="Arial,sans-serif" font-size="17" fill="#25272a"><text x="58" y="197">📖 이론 학습</text><text x="58" y="242">💻 SQL 실습</text><text x="58" y="287">🔁 복습 스케줄</text><text x="58" y="332">❓ 문제풀이</text><text x="58" y="377">📝 오답 노트</text><text x="58" y="422">📅 학습 계획</text></g>
<text x="244" y="136" font-family="Arial,sans-serif" font-size="26" font-weight="700" fill="#202226">오늘의 학습</text>
<rect x="244" y="168" width="260" height="142" rx="20" fill="#17191d"/><text x="270" y="208" font-family="Arial,sans-serif" font-size="14" fill="#9da2aa">THEORY</text><text x="270" y="253" font-family="Arial,sans-serif" font-size="23" font-weight="700" fill="#fff">데이터 모델링</text><text x="270" y="282" font-family="Arial,sans-serif" font-size="15" fill="#bec2c8">진도 72%</text>
<rect x="526" y="168" width="288" height="142" rx="20" fill="#3154d5"/><text x="552" y="208" font-family="Arial,sans-serif" font-size="14" fill="#dbe3ff">REVIEW</text><text x="552" y="253" font-family="Arial,sans-serif" font-size="23" font-weight="700" fill="#fff">복습 예정 12개</text><text x="552" y="282" font-family="Arial,sans-serif" font-size="15" fill="#dbe3ff">에빙하우스 스케줄</text>
<rect x="244" y="338" width="570" height="218" rx="20" fill="#faf9f6" stroke="#e3e0d8"/>
<text x="270" y="382" font-family="Arial,sans-serif" font-size="17" font-weight="700" fill="#222">최근 학습 항목</text>
<g font-family="Arial,sans-serif" font-size="15" fill="#5e6268"><text x="270" y="428">정규화 · 2차 복습</text><text x="270" y="470">JOIN 실습 · 완료</text><text x="270" y="512">SQL 기본 문법 · 오답 3개</text></g>
<g fill="#dedbd4"><rect x="644" y="416" width="124" height="8" rx="4"/><rect x="644" y="458" width="92" height="8" rx="4"/><rect x="644" y="500" width="142" height="8" rx="4"/></g>
</g>
<g transform="translate(86 260)"><rect width="330" height="250" rx="26" fill="#fff" stroke="#dedbd4"/><text x="28" y="50" font-family="Arial,sans-serif" font-size="14" fill="#777">PYTHON AUTOMATION</text><text x="28" y="96" font-family="Arial,sans-serif" font-size="28" font-weight="700" fill="#181a1d">6개 DB를 한 번에</text><text x="28" y="139" font-family="Arial,sans-serif" font-size="18" fill="#6c7075">setup_notion.py로 학습 구조를</text><text x="28" y="171" font-family="Arial,sans-serif" font-size="18" fill="#6c7075">자동 구성하고 복습 날짜를 계산</text><rect x="28" y="203" width="106" height="28" rx="14" fill="#eceaf7"/><text x="48" y="223" font-family="Arial,sans-serif" font-size="13" fill="#4c43a6">NOTION API</text></g>
</svg>
